<svg preserveAspectRatio="none" viewBox="0 0 97 12">
  <g fill="currentColor">
    <defs></defs>
    <path
      d="M22.3992 8.32044L17.0254 0.198895H14.1253V11.8011H16.5989V3.67956L21.9727 11.8011H24.8728V0.198895H22.3992V8.32044Z">
    </path>
    <path
      d="M4.75962 0.198895L0 11.8011H2.66129L3.63471 9.36464H8.61422L9.58747 11.8011H12.2488L7.48914 0.198895H4.75962ZM4.49553 7.20994L6.12438 3.1326L7.75323 7.20994H4.49553Z">
    </path>
    <path
      d="M 58.049 0 C 54.603 0 52.163 2.486 52.163 6.017 C 52.163 9.514 54.603 12 58.049 12 C 61.478 12 63.9 9.514 63.9 6.017 C 63.9 2.486 61.478 0 58.049 0 Z M 58.049 9.68 C 56.036 9.68 54.807 8.287 54.807 6.017 C 54.807 3.713 56.036 2.32 58.049 2.32 C 60.045 2.32 61.256 3.713 61.256 6.017 C 61.256 8.287 60.045 9.68 58.049 9.68 Z">
    </path>
    <path
      d="M 93.822 7.906 C 93.379 9.033 92.492 9.68 91.281 9.68 C 89.268 9.68 88.039 8.287 88.039 6.017 C 88.039 3.713 89.268 2.32 91.281 2.32 C 92.492 2.32 93.379 2.967 93.822 4.094 L 96.535 4.094 C 95.87 1.608 93.874 0 91.281 0 C 87.835 0 85.395 2.486 85.395 6.017 C 85.395 9.514 87.835 12 91.281 12 C 93.891 12 95.887 10.376 96.552 7.906 L 93.822 7.906 Z">
    </path>
    <path d="M 77.514 0.199 L 82.273 11.801 L 84.883 11.801 L 80.124 0.199 L 77.514 0.199 Z"></path>
    <path
      d="M 72.123 0.199 L 66.288 0.199 L 66.288 11.801 L 68.847 11.801 L 68.847 7.591 L 72.123 7.591 C 74.835 7.591 76.49 6.199 76.49 3.895 C 76.49 1.591 74.835 0.199 72.123 0.199 Z M 72.003 5.354 L 68.847 5.354 L 68.847 2.436 L 72.003 2.436 C 73.266 2.436 73.931 2.934 73.931 3.895 C 73.931 4.856 73.266 5.354 72.003 5.354 Z">
    </path>
    <path
      d="M 50.201 3.729 C 50.201 1.541 48.546 0.199 45.834 0.199 L 40 0.199 L 40 11.801 L 42.559 11.801 L 42.559 7.26 L 45.407 7.26 L 47.966 11.801 L 50.798 11.801 L 47.965 6.914 C 49.387 6.383 50.201 5.264 50.201 3.729 Z M 42.559 2.436 L 45.715 2.436 C 46.977 2.436 47.642 2.884 47.642 3.729 C 47.642 4.575 46.977 5.022 45.715 5.022 L 42.559 5.022 L 42.559 2.436 Z">
    </path>
    <path
      d="M 33.385 0.237 L 27.551 0.237 L 27.551 11.839 L 30.11 11.839 L 30.065 11.829 L 33.61 11.799 C 34.793 11.784 37.693 11.89 37.754 8.318 C 37.771 7.318 37.753 5.306 37.753 3.933 C 37.753 1.629 36.098 0.237 33.385 0.237 Z M 33.554 9.491 L 30.136 9.478 L 30.11 2.475 L 33.266 2.475 C 34.528 2.475 35.194 2.972 35.194 3.933 C 35.194 4.4 35.226 7.915 35.206 8.345 C 35.149 9.581 34.164 9.457 33.554 9.491 Z">
    </path>
  </g>
</svg>